#!OML:ASF H:\Terrain\Patient Classification 1\PLAYGROUND\JustinFriday\JustinFriday.ASF
:FULLY-SPECIFIED
:DEGREES
1670
root 0.339448 17.7465 48.3496 -23.6729 50.3018 -26.4606
lowerback 14.4293 3.2927 11.8563
upperback 4.88757 6.56912 7.08164
thorax -2.38227 3.39917 -0.162548
lowerneck 7.03285 5.71423 7.08758
upperneck 8.76225 8.73542 -8.81012
head 2.14951 4.51734 -3.77838
rclavicle -1.14301e-013 7.95139e-016
rhumerus -25.1322 -13.4455 -66.5642
rradius 26.6223
rwrist -366.714
rhand -16.7821 -26.0163
rfingers 7.12502
rthumb 9.44561 -55.7846
lclavicle -1.14301e-013 7.95139e-016
lhumerus 0.40663 43.0938 38.0366
lradius 41.4006
lwrist -32.3117
lhand -18.8266 4.74646
lfingers 7.12502
lthumb 7.47251 34.5945
rfemur 1.25636 -6.5364 35.5669
rtibia 24.474
rfoot -13.857 -15.5057
rtoes 8.06104
lfemur -30.7567 16.1748 -11.6609
ltibia 33.4482
lfoot -12.3022 1.6788
ltoes -41.2204
1671
root 0.440347 17.7677 48.4366 -23.9975 50.6396 -26.8875
lowerback 14.2338 3.21858 11.4566
upperback 4.80924 6.39884 7.16229
thorax -2.43071 3.31 0.167458
lowerneck 7.11761 5.98002 7.17538
upperneck 8.59497 9.09312 -8.88752
head 2.12358 4.69858 -3.81418
rclavicle -8.09054e-014 -5.64548e-014
rhumerus -24.634 -13.1693 -66.458
rradius 27.0235
rwrist -366.735
rhand -17.0081 -25.3667
rfingers 7.12502
rthumb 9.22754 -55.1448
lclavicle -8.09054e-014 -5.64548e-014
lhumerus -0.107107 43.354 36.4985
lradius 40.1697
lwrist -31.6667
lhand -17.8055 4.64855
lfingers 7.12502
lthumb 8.45803 34.4592
rfemur 2.08384 -6.74901 35.715
rtibia 23.6094
rfoot -13.9184 -15.7445
rtoes 8.34658
lfemur -31.4439 19.2582 -12.8666
ltibia 31.9055
lfoot -12.1415 2.03279
ltoes -36.2016
1672
root 0.540645 17.7719 48.522 -24.5021 50.948 -27.539
lowerback 13.9173 3.18697 11.5569
upperback 4.80436 6.31416 7.08591
thorax -2.24989 3.27749 0.0699953
lowerneck 6.99301 6.16581 7.37979
upperneck 8.42651 9.32518 -8.82409
head 2.12039 4.8155 -3.81987
rclavicle -5.88403e-014 1.19271e-014
rhumerus -24.0927 -13.6059 -66.3741
rradius 27.3726
rwrist -366.751
rhand -17.1905 -24.8849
rfingers 7.12502
rthumb 9.05151 -54.6707
lclavicle -5.88403e-014 1.19271e-014
lhumerus 0.04381 43.2998 35.4441
lradius 38.8895
lwrist -30.5937
lhand -16.9603 4.84398
lfingers 7.12502
lthumb 9.27368 34.62
rfemur 2.86096 -6.98945 36.001
rtibia 22.8591
rfoot -14.0501 -15.9416
rtoes 8.21017
lfemur -31.6137 21.3706 -13.4775
ltibia 30.7979
lfoot -11.3579 3.59003
ltoes -41.588
1673
root 0.640556 17.7729 48.6092 -24.8532 51.3354 -27.8964
lowerback 13.718 3.2047 11.1357
upperback 4.74286 6.2606 7.15111
thorax -2.26718 3.24767 0.380435
lowerneck 7.02481 6.33298 7.52992
upperneck 8.36145 9.55917 -8.88046
head 2.12559 4.93608 -3.85766
rclavicle 8.94531e-016 -5.12864e-014
rhumerus -23.6581 -14.1136 -66.0134
rradius 27.7481
rwrist -366.763
rhand -16.7463 -25.1713
rfingers 7.12502
rthumb 9.48012 -54.9381
lclavicle 8.94531e-016 -5.12864e-014
lhumerus 0.0125371 43.1835 34.5803
lradius 37.4751
lwrist -29.571
lhand -16.2484 5.07318
lfingers 7.12502
lthumb 9.96054 34.8175
rfemur 3.61985 -7.09019 36.1088
rtibia 22.3103
rfoot -11.467 -16.9196
rtoes -1.59715
lfemur -31.9606 23.985 -14.4778
ltibia 30.0349
lfoot -11.7647 2.59626
ltoes -26.1518
1674
root 0.744506 17.7655 48.6822 -25.1862 51.6357 -28.2445
lowerback 13.6004 3.28253 11.1033
upperback 4.65317 6.34385 7.07131
thorax -2.28775 3.28462 0.307273
lowerneck 6.95422 6.3994 7.67593
upperneck 8.38445 9.64553 -8.75508
head 2.15304 4.98222 -3.83741
rclavicle 3.01159e-014 -4.33351e-014
rhumerus -23.4168 -14.6347 -65.6937
rradius 28.1899
rwrist -367.207
rhand -16.717 -25.0977
rfingers 7.12502
rthumb 9.50841 -54.8632
lclavicle 3.01159e-014 -4.33351e-014
lhumerus 0.378717 42.7555 33.9658
lradius 35.973
lwrist -28.6581
lhand -15.944 5.30864
lfingers 7.12502
lthumb 10.2541 35.0387
rfemur 4.17811 -7.2699 36.1589
rtibia 22.0639
rfoot -10.0783 -17.3008
rtoes -6.61615
lfemur -32.7123 26.9275 -15.6476
ltibia 29.8207
lfoot -13.5813 1.00863
ltoes -33.1501
1675
root 0.853559 17.7494 48.7271 -25.609 51.6622 -28.8927
lowerback 13.5418 3.29678 11.6524
upperback 4.50354 6.43533 6.97668
thorax -2.33491 3.324 -0.0973358
lowerneck 6.69678 6.52307 7.68026
upperneck 8.54361 9.79226 -8.53558
head 2.24509 5.05034 -3.75511
rclavicle 1.10325e-014 4.77083e-015
rhumerus -23.1499 -14.8825 -65.4699
rradius 28.6892
rwrist -367.847
rhand -17.2475 -25.0761
rfingers 7.12502
rthumb 8.99654 -54.8642
lclavicle 1.10325e-014 4.77083e-015
lhumerus 0.661765 42.3637 33.2971
lradius 34.4704
lwrist -27.5544
lhand -15.6408 5.70272
lfingers 7.12502
lthumb 10.5466 35.4181
rfemur 4.51657 -7.71455 36.2751
rtibia 21.8306
rfoot -9.60891 -16.8744
rtoes -8.00528
lfemur -33.8414 29.893 -16.7302
ltibia 29.7878
lfoot -13.5176 1.06597
ltoes -22.9445
1676
root 0.966251 17.721 48.7997 -26.5267 51.633 -29.7628
lowerback 13.5637 3.2744 11.834
upperback 4.46463 6.45407 7.13486
thorax -2.38603 3.33308 -0.0337149
lowerneck 6.54694 6.68638 7.59227
upperneck 8.63105 9.99365 -8.38009
head 2.30116 5.14569 -3.68166
rclavicle -5.86415e-014 8.70677e-014
rhumerus -22.8829 -14.858 -65.1936
rradius 29.3126
rwrist -368.384
rhand -17.4317 -25.3788
rfingers 7.12502
rthumb 8.81881 -55.1746
lclavicle -5.86415e-014 8.70677e-014
lhumerus -0.395164 41.1427 31.8166
lradius 33.6917
lwrist -24.9
lhand -15.1825 6.06783
lfingers 7.12502
lthumb 10.9887 35.7602
rfemur 5.21265 -7.72919 36.7252
rtibia 21.8015
rfoot -9.86708 -16.9712
rtoes -7.80169
lfemur -35.1186 34.4398 -17.9957
ltibia 29.9464
lfoot -14.4092 -1.48069
ltoes -19.1958
1677
root 1.07619 17.7167 48.8759 -27.2825 51.8098 -30.3308
lowerback 13.527 3.27264 11.7567
upperback 4.48626 6.44299 7.22247
thorax -2.36371 3.33168 0.104284
lowerneck 6.47055 6.83602 7.51551
upperneck 8.5269 10.166 -8.22428
head 2.28628 5.22862 -3.61672
rclavicle 1.23246e-014 2.10712e-014
rhumerus -22.6348 -14.8094 -64.9372
rradius 29.9967
rwrist -369.064
rhand -17.3995 -25.6183
rfingers 7.12502
rthumb 8.84982 -55.4127
lclavicle 1.23246e-014 2.10712e-014
lhumerus -0.889585 40.0561 30.7998
lradius 32.8454
lwrist -22.421
lhand -14.6208 6.66472
lfingers 7.12502
lthumb 11.5304 36.3276
rfemur 5.80797 -7.72781 36.9439
rtibia 22.0876
rfoot -10.0376 -17.3345
rtoes -8.41987
lfemur -35.4653 39.0059 -19.7237
ltibia 30.3467
lfoot -16.3132 -4.84544
ltoes -16.3507
1678
root 1.18323 17.6987 48.9526 -27.6998 52.3081 -30.5838
lowerback 13.4305 3.25373 11.4194
upperback 4.46491 6.35271 7.11699
thorax -2.36664 3.28496 0.189757
lowerneck 6.2187 6.99942 7.64932
upperneck 8.52864 10.361 -8.05009
head 2.34232 5.32381 -3.56882
rclavicle 1.5704e-014 -8.22969e-014
rhumerus -22.3649 -15.2492 -64.8007
rradius 30.5851
rwrist -369.513
rhand -17.2907 -25.7801
rfingers 7.12502
rthumb 8.95486 -55.5701
lclavicle 1.5704e-014 -8.22969e-014
lhumerus -0.945493 39.198 29.9746
lradius 32.0742
lwrist -20.7128
lhand -14.0177 6.81512
lfingers 7.12502
lthumb 12.112 36.4445
rfemur 6.06497 -8.05501 36.7539
rtibia 22.7431
rfoot -9.82045 -17.4325
rtoes -9.89115
lfemur -31.8248 23.4452 -14
ltibia 31.1659
lfoot -16.469 11.1896
ltoes -5.20178
1679
root 1.28717 17.6476 49.0232 -28.8912 52.5173 -31.5992
lowerback 13.5497 3.18981 11.7299
upperback 4.49312 6.33097 7.09812
thorax -2.36592 3.27821 0.000742397
lowerneck 5.84618 7.12421 7.97545
upperneck 8.60379 10.5121 -7.93368
head 2.44859 5.39891 -3.56205
rclavicle 1.13307e-013 3.57812e-014
rhumerus -22.0891 -15.9789 -64.6718
rradius 31.1355
rwrist -369.764
rhand -17.1704 -25.8951
rfingers 7.12502
rthumb 9.07088 -55.6801
lclavicle 1.13307e-013 3.57812e-014
lhumerus -0.75056 38.6327 29.3646
lradius 31.6653
lwrist -19.813
lhand -13.4334 6.10055
lfingers 7.12502
lthumb 12.6754 35.6959
rfemur 6.01977 -8.42774 37.124
rtibia 24.32
rfoot -10.163 -17.4842
rtoes -10.4319
lfemur -29.9818 7.27281 -9.18365
ltibia 31.9694
lfoot -24.1603 24.3531
ltoes 9.505
1680
root 1.39628 17.546 49.076 -31.4105 52.0033 -33.8392
lowerback 14.2682 2.98982 13.0368
upperback 4.48022 6.42106 7.45208
thorax -2.6589 3.31886 -0.383564
lowerneck 5.65922 7.28378 8.09816
upperneck 8.6998 10.7196 -7.85181
head 2.52726 5.50195 -3.53972
rclavicle -7.94145e-014 -2.0276e-014
rhumerus -22.02 -16.0802 -64.3909
rradius 31.828
rwrist -370.276
rhand -17.1917 -26.2619
rfingers 7.12502
rthumb 9.05039 -56.0477
lclavicle -7.94145e-014 -2.0276e-014
lhumerus -0.89097 38.3812 28.9308
lradius 31.8196
lwrist -19.7861
lhand -12.1175 6.52231
lfingers 7.12502
lthumb 13.9437 36.0347
rfemur 6.01177 -8.93029 38.4279
rtibia 26.6856
rfoot -10.0617 -17.7836
rtoes -14.8194
lfemur -29.1697 -9.59595 -3.93063
ltibia 33.0238
lfoot -39.9572 32.9817
ltoes 25.8285
1681
root 1.49454 17.4819 49.1687 -30.2621 53.0885 -32.5466
lowerback 13.8231 3.23908 11.1008
upperback 4.41269 6.38081 7.20971
thorax -2.68292 3.28745 0.418243
lowerneck 5.32991 7.43207 8.08781
upperneck 8.74163 10.8812 -7.64996
head 2.59574 5.57616 -3.4565
rclavicle -1.53561e-013 -6.36111e-014
rhumerus -21.9491 -16.1047 -64.1875
rradius 32.6958
rwrist -371.148
rhand -17.4172 -26.6815
rfingers 7.12502
rthumb 8.83274 -56.4767
lclavicle -1.53561e-013 -6.36111e-014
lhumerus -0.784343 38.5565 28.7999
lradius 32.3703
lwrist -20.0109
lhand -9.66204 7.76577
lfingers 7.12502
lthumb 16.3091 37.0999
rfemur 4.83815 -9.02423 37.1473
rtibia 29.585
rfoot -9.15075 -18.5343
rtoes -21.9018
lfemur -30.5181 -27.6755 -1.2778
ltibia 34.1729
lfoot -63.8988 32.4242
ltoes 39.6199
1682
root 1.59786 17.3844 49.2509 -30.8719 53.4453 -33.045
lowerback 13.7737 3.29128 10.6177
upperback 4.37545 6.39055 7.31313
thorax -2.76283 3.2895 0.783678
lowerneck 5.01445 7.57682 7.93555
upperneck 8.80918 11.0321 -7.38829
head 2.65754 5.64308 -3.33392
rclavicle -5.79954e-014 -7.95139e-016
rhumerus -21.98 -15.6983 -63.9414
rradius 33.6351
rwrist -372.185
rhand -17.7354 -26.6301
rfingers 7.12502
rthumb 8.5257 -56.438
lclavicle -5.79954e-014 -7.95139e-016
lhumerus -0.635233 39.2641 28.9196
lradius 32.9292
lwrist -19.9274
lhand -7.04598 7.97378
lfingers 7.12502
lthumb 18.8266 37.0827
rfemur 3.85109 -9.09798 37.2105
rtibia 32.753
rfoot -7.62515 -19.2907
rtoes -27.6613
lfemur -33.6054 -45.9542 4.05858
ltibia 35.4637
lfoot -86.4947 22.6635
ltoes 49.2662
